{
  "accessors": [
    {
      "bufferView": 2,
      "componentType": 5126,
      "count": 2380,
      "max": [
        0.0024557174183428288,
        0.07935194671154022,
        0.00979758333414793
      ],
      "min": [
        -0.15263345837593079,
        -0.05064500495791435,
        -0.025680676102638245
      ],
      "type": "VEC3"
    },
    {
      "bufferView": 2,
      "byteOffset": 28560,
      "componentType": 5126,
      "count": 2380,
      "max": [
        1.0,
        0.9985685348510742,
        0.9998613595962524
      ],
      "min": [
        -1.0,
        -1.0,
        -0.9999982714653015
      ],
      "type": "VEC3"
    },
    {
      "bufferView": 3,
      "componentType": 5126,
      "count": 2380,
      "max": [
        0.9999999403953552,
        0.9999019503593445,
        0.9999860525131226,
        1.0
      ],
      "min": [
        -0.9999999403953552,
        -0.9999211430549622,
        -0.9977465867996216,
        -1.0
      ],
      "type": "VEC4"
    },
    {
      "bufferView": 1,
      "componentType": 5126,
      "count": 2380,
      "max": [
        0.9955673217773438,
        0.981507420539856
      ],
      "min": [
        0.33343541622161865,
        0.018411871045827866
      ],
      "type": "VEC2"
    },
    {
      "bufferView": 0,
      "componentType": 5125,
      "count": 11232,
      "type": "SCALAR"
    },
    {
      "bufferView": 2,
      "byteOffset": 57120,
      "componentType": 5126,
      "count": 636,
      "max": [
        0.02965291030704975,
        0.007380030117928982,
        0.017767589539289474
      ],
      "min": [
        -0.11248090863227844,
        -0.0039007903542369604,
        -0.019568173214793205
      ],
      "type": "VEC3"
    },
    {
      "bufferView": 2,
      "byteOffset": 64752,
      "componentType": 5126,
      "count": 636,
      "max": [
        0.9963670969009399,
        0.998203456401825,
        0.9999102354049683
      ],
      "min": [
        -0.9963670969009399,
        -0.9982044696807861,
        -0.9949097633361816
      ],
      "type": "VEC3"
    },
    {
      "bufferView": 3,
      "byteOffset": 38080,
      "componentType": 5126,
      "count": 636,
      "max": [
        0.998583197593689,
        0.9903223514556885,
        0.1817525178194046,
        1.0
      ],
      "min": [
        -0.9985795617103577,
        -0.282977432012558,
        -0.08337793499231339,
        1.0
      ],
      "type": "VEC4"
    },
    {
      "bufferView": 1,
      "byteOffset": 19040,
      "componentType": 5126,
      "count": 636,
      "max": [
        0.9422317743301392,
        0.9116654396057129
      ],
      "min": [
        0.004287898540496826,
        0.004284724593162537
      ],
      "type": "VEC2"
    },
    {
      "bufferView": 0,
      "byteOffset": 44928,
      "componentType": 5125,
      "count": 2496,
      "type": "SCALAR"
    },
    {
      "bufferView": 2,
      "byteOffset": 72384,
      "componentType": 5126,
      "count": 6362,
      "max": [
        0.07763125747442245,
        0.014347602613270283,
        0.007013109512627125
      ],
      "min": [
        -0.07763125747442245,
        -0.011875181458890438,
        -0.012756437994539738
      ],
      "type": "VEC3"
    },
    {
      "bufferView": 2,
      "byteOffset": 148728,
      "componentType": 5126,
      "count": 6362,
      "max": [
        0.9999970197677612,
        0.9999995827674866,
        0.9999364018440247
      ],
      "min": [
        -0.9999969601631165,
        -0.9999998211860657,
        -0.9999954104423523
      ],
      "type": "VEC3"
    },
    {
      "bufferView": 3,
      "byteOffset": 48256,
      "componentType": 5126,
      "count": 6362,
      "max": [
        0.9999964833259583,
        0.9999675154685974,
        0.9999571442604065,
        1.0
      ],
      "min": [
        -0.999987781047821,
        -0.9999527931213379,
        -0.9985491037368774,
        -1.0
      ],
      "type": "VEC4"
    },
    {
      "bufferView": 1,
      "byteOffset": 24128,
      "componentType": 5126,
      "count": 6362,
      "max": [
        0.9935619831085205,
        0.8891717791557312
      ],
      "min": [
        0.0042906999588012695,
        0.004287639632821083
      ],
      "type": "VEC2"
    },
    {
      "bufferView": 0,
      "byteOffset": 54912,
      "componentType": 5125,
      "count": 31062,
      "type": "SCALAR"
    },
    {
      "bufferView": 2,
      "byteOffset": 225072,
      "componentType": 5126,
      "count": 3194,
      "max": [
        0.030014224350452423,
        0.007448596879839897,
        0.018310613930225372
      ],
      "min": [
        -0.11284222453832626,
        -0.00405356427654624,
        -0.020059876143932343
      ],
      "type": "VEC3"
    },
    {
      "bufferView": 2,
      "byteOffset": 263400,
      "componentType": 5126,
      "count": 3194,
      "max": [
        0.9988991618156433,
        0.996099591255188,
        0.9976152181625366
      ],
      "min": [
        -0.9988988041877747,
        -0.9986546039581299,
        -0.999935507774353
      ],
      "type": "VEC3"
    },
    {
      "bufferView": 3,
      "byteOffset": 150048,
      "componentType": 5126,
      "count": 3194,
      "max": [
        0.9984540343284607,
        0.9989657402038574,
        0.9757471084594727,
        1.0
      ],
      "min": [
        -0.9984406232833862,
        -0.9998943209648132,
        -0.9712610840797424,
        -1.0
      ],
      "type": "VEC4"
    },
    {
      "bufferView": 1,
      "byteOffset": 75024,
      "componentType": 5126,
      "count": 3194,
      "max": [
        0.9669502377510071,
        0.7007124423980713
      ],
      "min": [
        0.05573323369026184,
        0.004554308485239744
      ],
      "type": "VEC2"
    },
    {
      "bufferView": 0,
      "byteOffset": 179160,
      "componentType": 5125,
      "count": 16776,
      "type": "SCALAR"
    },
    {
      "bufferView": 2,
      "byteOffset": 301728,
      "componentType": 5126,
      "count": 314,
      "max": [
        0.0016259897965937853,
        0.0026821675710380077,
        0.0048683201894164085
      ],
      "min": [
        -0.02358216792345047,
        -0.00229057390242815,
        -0.006261499132961035
      ],
      "type": "VEC3"
    },
    {
      "bufferView": 2,
      "byteOffset": 305496,
      "componentType": 5126,
      "count": 314,
      "max": [
        0.9891657829284668,
        0.9942693710327148,
        0.9962407946586609
      ],
      "min": [
        -0.989165723323822,
        -0.9991738200187683,
        -0.9220736622810364
      ],
      "type": "VEC3"
    },
    {
      "bufferView": 3,
      "byteOffset": 201152,
      "componentType": 5126,
      "count": 314,
      "max": [
        0.9959191083908081,
        0.9907990097999573,
        0.9964430928230286,
        1.0
      ],
      "min": [
        -0.9975876808166504,
        -0.9938983917236328,
        -0.9717833399772644,
        -1.0
      ],
      "type": "VEC4"
    },
    {
      "bufferView": 1,
      "byteOffset": 100576,
      "componentType": 5126,
      "count": 314,
      "max": [
        0.874434769153595,
        0.14034362137317657
      ],
      "min": [
        0.026903003454208374,
        0.00429694727063179
      ],
      "type": "VEC2"
    },
    {
      "bufferView": 0,
      "byteOffset": 246264,
      "componentType": 5125,
      "count": 1128,
      "type": "SCALAR"
    },
    {
      "bufferView": 2,
      "byteOffset": 309264,
      "componentType": 5126,
      "count": 292,
      "max": [
        0.00042640496394596994,
        0.0013051999267190695,
        0.0006141455960460007
      ],
      "min": [
        -0.15085293352603912,
        -0.0013889529509469867,
        -0.0006130196852609515
      ],
      "type": "VEC3"
    },
    {
      "bufferView": 2,
      "byteOffset": 312768,
      "componentType": 5126,
      "count": 292,
      "max": [
        0.9994809627532959,
        0.9759275317192078,
        0.9865350723266602
      ],
      "min": [
        -0.9994804263114929,
        -0.9536060094833374,
        -0.9891509413719177
      ],
      "type": "VEC3"
    },
    {
      "bufferView": 3,
      "byteOffset": 206176,
      "componentType": 5126,
      "count": 292,
      "max": [
        0.9998239874839783,
        0.9998317360877991,
        0.9341046214103699,
        1.0
      ],
      "min": [
        -0.9998158812522888,
        -0.9994013905525208,
        -0.9306023716926575,
        -1.0
      ],
      "type": "VEC4"
    },
    {
      "bufferView": 1,
      "byteOffset": 103088,
      "componentType": 5126,
      "count": 292,
      "max": [
        0.8881838321685791,
        0.08031808584928513
      ],
      "min": [
        0.04052823781967163,
        0.0042905802838504314
      ],
      "type": "VEC2"
    },
    {
      "bufferView": 0,
      "byteOffset": 250776,
      "componentType": 5125,
      "count": 1224,
      "type": "SCALAR"
    },
    {
      "bufferView": 2,
      "byteOffset": 316272,
      "componentType": 5126,
      "count": 136,
      "max": [
        0.0003797188401222229,
        0.00040506821824237704,
        0.00180857686791569
      ],
      "min": [
        -0.15127962827682495,
        -0.000405115686589852,
        -0.0018085765186697245
      ],
      "type": "VEC3"
    },
    {
      "bufferView": 2,
      "byteOffset": 317904,
      "componentType": 5126,
      "count": 136,
      "max": [
        0.999975323677063,
        0.9999651312828064,
        0.9998810291290283
      ],
      "min": [
        -0.999975323677063,
        -0.9999649524688721,
        -0.9998809099197388
      ],
      "type": "VEC3"
    },
    {
      "bufferView": 3,
      "byteOffset": 210848,
      "componentType": 5126,
      "count": 136,
      "max": [
        1.0,
        0.999918520450592,
        0.9985279440879822,
        1.0
      ],
      "min": [
        -0.9999997019767761,
        -0.9999183416366577,
        -0.9987446665763855,
        -1.0
      ],
      "type": "VEC4"
    },
    {
      "bufferView": 1,
      "byteOffset": 105424,
      "componentType": 5126,
      "count": 136,
      "max": [
        0.636957049369812,
        0.0776369720697403
      ],
      "min": [
        0.2711217403411865,
        0.004290904849767685
      ],
      "type": "VEC2"
    },
    {
      "bufferView": 0,
      "byteOffset": 255672,
      "componentType": 5125,
      "count": 576,
      "type": "SCALAR"
    }
  ],
  "asset": {
    "extras": {
      "author": "SantyFrow (https://sketchfab.com/santyfrow)",
      "license": "CC-BY-4.0 (http://creativecommons.org/licenses/by/4.0/)",
      "source": "https://sketchfab.com/3d-models/black-metal-glasses-with-pink-temples-b5a697b238694e01aa0bf4021f9b45bf",
      "title": "Black Metal Glasses With Pink Temples"
    },
    "generator": "Sketchfab-12.67.0",
    "version": "2.0"
  },
  "bufferViews": [
    {
      "buffer": 0,
      "byteLength": 257976,
      "name": "floatBufferViews",
      "target": 34963
    },
    {
      "buffer": 0,
      "byteLength": 106512,
      "byteOffset": 257976,
      "byteStride": 8,
      "name": "floatBufferViews",
      "target": 34962
    },
    {
      "buffer": 0,
      "byteLength": 319536,
      "byteOffset": 364488,
      "byteStride": 12,
      "name": "floatBufferViews",
      "target": 34962
    },
    {
      "buffer": 0,
      "byteLength": 213024,
      "byteOffset": 684024,
      "byteStride": 16,
      "name": "floatBufferViews",
      "target": 34962
    }
  ],
  "buffers": [
    {
      "byteLength": 897048,
      "uri": "scene.bin"
    }
  ],
  "images": [
    {
      "uri": "textures/M_glass_baseColor.png"
    },
    {
      "uri": "textures/M_glass_metallicRoughness.png"
    },
    {
      "uri": "textures/M_glass_normal.png"
    }
  ],
  "materials": [
    {
      "alphaMode": "BLEND",
      "doubleSided": true,
      "name": "M_glass",
      "normalTexture": {
        "index": 2
      },
      "pbrMetallicRoughness": {
        "baseColorTexture": {
          "index": 0
        },
        "metallicRoughnessTexture": {
          "index": 1
        }
      }
    }
  ],
  "meshes": [
    {
      "name": "temples_M_glass_0",
      "primitives": [
        {
          "attributes": {
            "NORMAL": 1,
            "POSITION": 0,
            "TANGENT": 2,
            "TEXCOORD_0": 3
          },
          "indices": 4,
          "material": 0,
          "mode": 4
        }
      ]
    },
    {
      "name": "lenses_M_glass_0",
      "primitives": [
        {
          "attributes": {
            "NORMAL": 6,
            "POSITION": 5,
            "TANGENT": 7,
            "TEXCOORD_0": 8
          },
          "indices": 9,
          "material": 0,
          "mode": 4
        }
      ]
    },
    {
      "name": "frame_M_glass_0",
      "primitives": [
        {
          "attributes": {
            "NORMAL": 11,
            "POSITION": 10,
            "TANGENT": 12,
            "TEXCOORD_0": 13
          },
          "indices": 14,
          "material": 0,
          "mode": 4
        }
      ]
    },
    {
      "name": "rims_M_glass_0",
      "primitives": [
        {
          "attributes": {
            "NORMAL": 16,
            "POSITION": 15,
            "TANGENT": 17,
            "TEXCOORD_0": 18
          },
          "indices": 19,
          "material": 0,
          "mode": 4
        }
      ]
    },
    {
      "name": "nosepads_M_glass_0",
      "primitives": [
        {
          "attributes": {
            "NORMAL": 21,
            "POSITION": 20,
            "TANGENT": 22,
            "TEXCOORD_0": 23
          },
          "indices": 24,
          "material": 0,
          "mode": 4
        }
      ]
    },
    {
      "name": "hinges_M_glass_0",
      "primitives": [
        {
          "attributes": {
            "NORMAL": 26,
            "POSITION": 25,
            "TANGENT": 27,
            "TEXCOORD_0": 28
          },
          "indices": 29,
          "material": 0,
          "mode": 4
        }
      ]
    },
    {
      "name": "screw_M_glass_0",
      "primitives": [
        {
          "attributes": {
            "NORMAL": 31,
            "POSITION": 30,
            "TANGENT": 32,
            "TEXCOORD_0": 33
          },
          "indices": 34,
          "material": 0,
          "mode": 4
        }
      ]
    }
  ],
  "nodes": [
    {
      "children": [
        1
      ],
      "matrix": [
        1.0,
        0.0,
        0.0,
        0.0,
        0.0,
        2.220446049250313e-16,
        -1.0,
        0.0,
        0.0,
        1.0,
        2.220446049250313e-16,
        0.0,
        0.0,
        0.0,
        0.0,
        1.0
      ],
      "name": "Sketchfab_model"
    },
    {
      "children": [
        2
      ],
      "matrix": [
        1.0,
        0.0,
        0.0,
        0.0,
        0.0,
        0.0,
        1.0,
        0.0,
        0.0,
        -1.0,
        0.0,
        0.0,
        0.0,
        0.0,
        0.0,
        1.0
      ],
      "name": "3303adaf4498445fa4404893da4497f7.fbx"
    },
    {
      "children": [
        3,
        5,
        7,
        9,
        11,
        13,
        15
      ],
      "name": "RootNode"
    },
    {
      "children": [
        4
      ],
      "matrix": [
        100.0,
        0.0,
        0.0,
        0.0,
        0.0,
        -1.629206793918314e-05,
        -99.99999999999868,
        0.0,
        0.0,
        99.99999999999868,
        -1.629206793918314e-05,
        0.0,
        7.514057159423828,
        2.591869354248047,
        -0.5149229168891907,
        1.0
      ],
      "name": "temples"
    },
    {
      "mesh": 0,
      "name": "temples_M_glass_0"
    },
    {
      "children": [
        6
      ],
      "matrix": [
        100.0,
        0.0,
        0.0,
        0.0,
        0.0,
        -1.629206793918314e-05,
        -99.99999999999868,
        0.0,
        0.0,
        99.99999999999868,
        -1.629206793918314e-05,
        0.0,
        4.146570205688477,
        2.0250253677368164,
        6.529732704162598,
        1.0
      ],
      "name": "lenses"
    },
    {
      "mesh": 1,
      "name": "lenses_M_glass_0"
    },
    {
      "children": [
        8
      ],
      "matrix": [
        100.0,
        0.0,
        0.0,
        0.0,
        0.0,
        -1.629206793918314e-05,
        -99.99999999999868,
        0.0,
        0.0,
        99.99999999999868,
        -1.629206793918314e-05,
        0.0,
        0.005169970449060202,
        3.2309587001800537,
        5.994435787200928,
        1.0
      ],
      "name": "frame"
    },
    {
      "mesh": 2,
      "name": "frame_M_glass_0"
    },
    {
      "children": [
        10
      ],
      "matrix": [
        100.0,
        0.0,
        0.0,
        0.0,
        0.0,
        -1.629206793918314e-05,
        -99.99999999999868,
        0.0,
        0.0,
        99.99999999999868,
        -1.629206793918314e-05,
        0.0,
        4.146570205688477,
        2.0250253677368164,
        6.529732704162598,
        1.0
      ],
      "name": "rims"
    },
    {
      "mesh": 3,
      "name": "rims_M_glass_0"
    },
    {
      "children": [
        12
      ],
      "matrix": [
        100.0,
        0.0,
        0.0,
        0.0,
        0.0,
        -1.629206793918314e-05,
        -99.99999999999868,
        0.0,
        0.0,
        99.99999999999868,
        -1.629206793918314e-05,
        0.0,
        1.1029789447784424,
        1.8181685209274292,
        6.399878025054932,
        1.0
      ],
      "name": "nosepads"
    },
    {
      "mesh": 4,
      "name": "nosepads_M_glass_0"
    },
    {
      "children": [
        14
      ],
      "matrix": [
        100.0,
        0.0,
        0.0,
        0.0,
        0.0,
        -1.629206793918314e-05,
        -99.99999999999868,
        0.0,
        0.0,
        99.99999999999868,
        -1.629206793918314e-05,
        0.0,
        7.526496887207031,
        3.278120279312134,
        4.569789886474609,
        1.0
      ],
      "name": "hinges"
    },
    {
      "mesh": 5,
      "name": "hinges_M_glass_0"
    },
    {
      "children": [
        16
      ],
      "matrix": [
        100.0,
        0.0,
        0.0,
        0.0,
        0.0,
        -1.629206793918314e-05,
        -99.99999999999868,
        0.0,
        0.0,
        99.99999999999868,
        -1.629206793918314e-05,
        0.0,
        7.550165176391602,
        3.269545793533325,
        4.480560302734375,
        1.0
      ],
      "name": "screw"
    },
    {
      "mesh": 6,
      "name": "screw_M_glass_0"
    }
  ],
  "samplers": [
    {
      "magFilter": 9729,
      "minFilter": 9987,
      "wrapS": 10497,
      "wrapT": 10497
    }
  ],
  "scene": 0,
  "scenes": [
    {
      "name": "Sketchfab_Scene",
      "nodes": [
        0
      ]
    }
  ],
  "textures": [
    {
      "sampler": 0,
      "source": 0
    },
    {
      "sampler": 0,
      "source": 1
    },
    {
      "sampler": 0,
      "source": 2
    }
  ]
}
